PathFileType	4	(X/Y/Z)	Demo_0-100.trc
DataRate	CameraRate	NumFrames	NumMarkers	Units	OrigDataRate	OrigDataStartFrame	OrigNumFrames
60	60	6	21	m	60	0	100
Frame#	Time	RHip			RKnee			RAnkle			RBigToe			RSmallToe			RHeel			LHip			LKnee			LAnkle			LBigToe			LSmallToe			LHeel			Neck			Head			Nose			RShoulder			RElbow			RWrist			LShoulder			LElbow			LWrist		
		X1	Y1	Z1	X2	Y2	Z2	X3	Y3	Z3	X4	Y4	Z4	X5	Y5	Z5	X6	Y6	Z6	X7	Y7	Z7	X8	Y8	Z8	X9	Y9	Z9	X10	Y10	Z10	X11	Y11	Z11	X12	Y12	Z12	X13	Y13	Z13	X14	Y14	Z14	X15	Y15	Z15	X16	Y16	Z16	X17	Y17	Z17	X18	Y18	Z18	X19	Y19	Z19	X20	Y20	Z20	X21	Y21	Z21
1	0.0166666666666666	-0.06499776880731584	0.9015132201416929	-1.4005735926016618	-0.03953823544185855	0.4928670195676177	-1.4488398285119384	0.043722239677177546	0.14392102600475692	-1.5950232476837605	-0.016930358013220913	0.06443271631692336	-1.4465817927970495	-0.023659406882450114	0.07649613531234134	-1.504955670851614	0.059985551516713226	0.10449043759251578	-1.6357123947948065	0.10412925185379157	0.9087452234460844	-1.4589563098305751	0.03046064437340479	0.5362746404904444	-1.2634604115734183	0.013825475610302005	0.18117305106442444	-1.1375271880024058	-0.022230130873009023	0.09538301202311449	-1.0124216532378894	0.002585112527233243	0.11342035499030148	-0.9900955931253046	0.02324341098571149	0.10281046967820899	-1.226940406627339	-0.028691117162967534	1.4640467742574672	-1.3966877075073407	-0.05637421589160283	1.7024200638322964	-1.2516128899060592	-0.05303931035925115	1.5572384516777784	-1.1970436207520263	-0.167442086648298	1.392947588015956	-1.4130332081978958	-0.27295446083447816	1.1455669190226074	-1.4797215568704447	-0.363078065347936	0.9229656892080893	-1.3696481415007873	0.1449346084625672	1.4142103983448608	-1.4453320504539162	0.277046555117822	1.1648130235865395	-1.4725039614568265	0.35463254276602035	0.937737730471396	-1.4579500717624179
2	0.0333333333333333	-0.07104221539355539	0.9043857718248944	-1.3935290026984142	-0.03880590057606989	0.49350054440359026	-1.446546013508329	0.042171226978639384	0.1456514778923865	-1.5952702035359851	-0.01726238596964083	0.06489677662461549	-1.4471475723743108	-0.023450287553422086	0.07552904378809105	-1.503324160367071	0.05909754623411686	0.10738317958411918	-1.636385597839711	0.10071723690326366	0.9082867353873171	-1.4465696738127223	0.03768271444426343	0.5291465823978587	-1.2425930838408041	0.011219622298424652	0.1726017604584103	-1.149628403484432	-0.023506949025403796	0.09085042852301174	-1.0128543960362535	-0.0017343510873553073	0.09846739691190844	-1.0095156760416237	0.019979298828053854	0.10451892856850689	-1.217635806244642	-0.023391910591897516	1.4638619184705208	-1.3856850474961646	-0.043915425552927254	1.7026548729321063	-1.2512145404992965	-0.037401443003060704	1.556111109962116	-1.1993429627695789	-0.16398493590089255	1.3941321603107173	-1.421332180236123	-0.27591600807308203	1.1487930488475269	-1.4801962058940867	-0.36572816332854563	0.9359377608915077	-1.360064165244055	0.1497446791896487	1.4100972780266514	-1.4377593851411463	0.2812419795732824	1.160081452984462	-1.4560701338967506	0.35944636657246337	0.9320159286708114	-1.4383584093560937
3	0.05	-0.07645198561087355	0.9069940575482702	-1.386021592722144	-0.03822743922871416	0.49409662221293527	-1.4441913244047033	0.04056369624494717	0.14734992674577058	-1.595505291073214	-0.017867244863870865	0.0654855226798009	-1.4470331418421103	-0.02356921111498618	0.07515743354397725	-1.502082608316526	0.058118048710675066	0.11063680953345591	-1.6371707607521462	0.09720199175920108	0.9080798844258202	-1.4346185098781312	0.04490296203786441	0.5227327874168545	-1.2224064807806698	0.008571391007630368	0.16532945071820646	-1.1604310273275136	-0.02531132479031102	0.08630322929983965	-1.0131031181997188	-0.006238421296742498	0.08592374531388872	-1.025611629506082	0.016708852486160237	0.10632323927914533	-1.209276544835169	-0.017674284528190354	1.463763485102624	-1.3748427241451058	-0.03143945788304647	1.7028880007733869	-1.2490642166058654	-0.02309858181356092	1.5552175702276105	-1.2002725099379585	-0.1600340329378888	1.3961490903770342	-1.4255817971801812	-0.27883793278844965	1.1531479796379254	-1.4784308333074834	-0.36904576783040505	0.9489834612138168	-1.3489596196539768	0.15414429522636164	1.406907438321292	-1.430821359357215	0.28512078106741273	1.1550622245569269	-1.4402949572925516	0.36357677312515185	0.9264522765266473	-1.419229549778169
4	0.0666666666666666	-0.08094892532689273	0.9091861124521746	-1.377468194814903	-0.038160165698748826	0.49484526715581	-1.441234779686723	0.03879492924977217	0.14901982475953318	-1.5955454652363399	-0.018881909828377105	0.06633042749208141	-1.4458379719028598	-0.0241442373481497	0.07564123177700784	-1.5011868517683955	0.057068706303409336	0.11435847102508064	-1.6381125543793322	0.09349261870507852	0.9080862478436125	-1.4231340468339015	0.05127714035925511	0.5176337434335632	-1.2039577995786594	0.005918700949447484	0.15991981061336222	-1.1692039690246165	-0.02723107242441973	0.08212569818720132	-1.0128943064007176	-0.010404052359602598	0.07722823888254973	-1.0365069303198478	0.013495919915038726	0.10816672049760752	-1.2022530830684044	-0.01119191972260288	1.4638138281852073	-1.3641796776284827	-0.018760524266627193	1.70309332480987	-1.2437223159825272	-0.010758345291826708	1.5548530875014261	-1.1980173904182616	-0.15506064269938122	1.3995831233356526	-1.4223134646599125	-0.2813836321306575	1.1596958040055125	-1.4723493709031408	-0.37358057986575954	0.9625872373796395	-1.3353134211822866	0.1580820088451117	1.4050796793839504	-1.424636248866424	0.2883791816150288	1.149695420975792	-1.4259619080587087	0.36642809816273175	0.9211729638771048	-1.4010367753851085
5	0.0833333333333333	-0.08470151873521665	0.9110495547770558	-1.3674809095177511	-0.03894896641965008	0.4961502747891749	-1.4368520197224879	0.036917927459728585	0.15080130153095586	-1.5951031291164626	-0.02017014446877074	0.06745612556398115	-1.4437141664554223	-0.025030194457627795	0.07678232736241629	-1.500339465930817	0.05614280237893545	0.11842494150824794	-1.6391919833894608	0.08958184945738988	0.9080475483985258	-1.4116845681379022	0.05535484128595056	0.5141475580229875	-1.1883663741642372	0.003393447312982566	0.1563370742902982	-1.175367988590263	-0.028649065098054875	0.07878718081263564	-1.0119670239897254	-0.013497949423113085	0.07248460554435787	-1.0420646396639421	0.01055340805538862	0.11004588519573731	-1.1962153616619389	-0.003790019429250883	1.4640130211304263	-1.3535789823238118	-0.005696975607219752	1.7032529297409906	-1.2346767255592295	-3.875543008163883e-05	1.5552161597151741	-1.1910520763070536	-0.1487803847373467	1.4045049379022188	-1.4104861891999845	-0.2832502518265761	1.1687911014875298	-1.4614300447072883	-0.3793869067269434	0.9773437232369573	-1.3189227211334373	0.16200912508988088	1.4044096989515966	-1.4183926306247607	0.29080763373070784	1.1442538746953461	-1.4136003231597327	0.36777743007215674	0.9162071448538645	-1.3839626556771796
6	0.1	-0.08810515478109157	0.9128997693016939	-1.3560727876162548	-0.04102364059663987	0.4985798979266883	-1.4298086221712711	0.035192185600523646	0.1529679110296584	-1.5940072159336929	-0.021385118036042334	0.06871831205429012	-1.4412958924988086	-0.02593309624978896	0.07815405958822522	-1.4994014052654077	0.05552809579873479	0.1227816673633633	-1.6403352315846642	0.08556212554777835	0.9077657586194066	-1.399587347191998	0.05601342361413439	0.5119959348035745	-1.1759813320846195	0.0011906620332082492	0.15429915219822005	-1.1786304131302505	-0.029898169926256372	0.07628492531462161	-1.0103373891830265	-0.015204954904712574	0.07109005353058655	-1.0431058095924837	0.008219007566918117	0.1122223639244033	-1.1905855175085234	0.004558912742279186	1.4643184333496837	-1.3428888780013986	0.007745672468595215	1.7033361094681325	-1.2227596748538667	0.009909925902068262	1.5562674900185531	-1.178962745002714	-0.14130075179981258	1.4103992235151253	-1.392631308163416	-0.28460334750694155	1.1797619838464957	-1.447461879381868	-0.38583180461352795	0.9937582970403883	-1.3001904793719405	0.16677659880148615	1.4040893790768796	-1.4103073178833734	0.2925268201732782	1.1390974599924175	-1.4030243386763852	0.36794749853726766	0.9113334128947934	-1.367797844492298
